<?xml version="1.0" encoding="UTF-8" standalone="no" ?>
<!DOCTYPE svg PUBLIC "-//W3C//DTD SVG 1.1//EN" "http://www.w3.org/Graphics/SVG/1.1/DTD/svg11.dtd">
<svg xmlns="http://www.w3.org/2000/svg" xmlns:xlink="http://www.w3.org/1999/xlink" version="1.1" width="1080" height="1080" viewBox="0 0 1080 1080" xml:space="preserve">
<desc>Created with Fabric.js 5.2.4</desc>
<defs>
</defs>
<g transform="matrix(1 0 0 1 540 540)" id="3a39becd-e276-4d1e-9763-58f6a39c3fcb"  >
<rect style="stroke: none; stroke-width: 1; stroke-dasharray: none; stroke-linecap: butt; stroke-dashoffset: 0; stroke-linejoin: miter; stroke-miterlimit: 4; fill: rgb(255,255,255); fill-rule: nonzero; opacity: 1; visibility: hidden;" vector-effect="non-scaling-stroke"  x="-540" y="-540" rx="0" ry="0" width="1080" height="1080" />
</g>
<g transform="matrix(1 0 0 1 540 540)" id="2b655f7f-e00c-4cc7-80be-372300b31819"  >
</g>
<g transform="matrix(1 0 0 1 540 709.39)"  >
<g style="opacity: 1;" vector-effect="non-scaling-stroke"   >
		<g transform="matrix(5.05 0 0 5.05 0 0)"  >
<path style="stroke: none; stroke-width: 1; stroke-dasharray: none; stroke-linecap: butt; stroke-dashoffset: 0; stroke-linejoin: miter; stroke-miterlimit: 4; fill: rgb(213,178,99); fill-rule: nonzero; opacity: 1;" vector-effect="non-scaling-stroke"  transform=" translate(-122.22, -58.45)" d="M 243.859 25.072 C 242.71 12.938 239.435 9.565 239.435 9.565 C 229.38 -2.933 216.832 -0.239 205.559 1.557 C 185.656 1.63 165.834 4.299 145.977 5.731 C 104.298 5.949 62.263 2.358 20.791 11.215 C 16.896 13.933 -4.041 11.749 0.693 26.625 C 1.934 32.813 6.462 39.681 6.324 45.36 C 6.944 46.355 7.806 44.074 8.174 45.505 C 9.461 49.364 11.564 47.544 13.287 49.825 C 10.886 55.916 12.609 60.988 14.253 66.303 C 11.357 67.686 7.645 67.031 5.979 71.617 C 5.807 74.942 4.876 74.311 3.853 74.165 C 3.106 74.068 1.601 74.432 1.854 75.476 C 2.715 79.043 -0.985 81.106 1.336 84.6 C -0.261 88.386 2.44 91.662 2.072 95.764 C 2.026 96.589 2.279 97.292 2.681 97.487 C 4.462 98.53 1.865 100.569 2.141 102.777 C 20.412 117.871 40.234 107.436 58.954 114.377 C 63.814 109.523 60.16 116.1 62.102 115.081 C 63.619 113.891 64.722 118.818 66.434 116.027 C 66.699 115.226 66.296 113.333 67.239 113.697 C 67.733 113.891 68.169 113.843 68.238 112.727 C 68.342 111.052 67.434 112.096 67.193 111.222 C 69.801 106.805 69.158 117.313 71.605 116.876 C 71.49 115.59 70.778 113.746 72.237 113.989 C 73.685 112.144 73.731 110.615 75.018 114.765 C 75.064 115.663 75.294 116.294 75.662 116.731 C 79.684 112.217 83.683 118.332 87.9 116.294 C 90.485 114.061 92.968 117.507 95.588 116.658 C 96.507 115.978 97.438 114.765 98.323 116.804 C 109.159 117.24 120.707 115.42 130.981 116.876 C 158.433 114.158 187.77 117.993 216.717 114.401 C 223.543 113.018 230.633 111.052 237.286 109.475 C 237.286 109.475 242.675 105.155 242.675 85.741 C 242.675 66.327 243.825 68.754 243.997 53.295 C 244.169 37.837 244.974 37.206 243.825 25.072 Z" stroke-linecap="round" />
</g>
		<g transform="matrix(11.6 0 0 11.6 0 0)" id="text-0"  >
<path style="stroke: none; stroke-width: 1; stroke-dasharray: none; stroke-linecap: butt; stroke-dashoffset: 0; stroke-linejoin: miter; stroke-miterlimit: 4; fill: rgb(41,48,64); fill-rule: nonzero; opacity: 1;" vector-effect="non-scaling-stroke"  transform=" translate(-40.63, 17.42)" d="M 12.9 0.95 L 12.9 0.95 Q 10.05 0.95 7.28 0.55 Q 4.5 0.15 2.45 -0.8 L 2.45 -0.8 Q 2.45 -2.95 2.78 -5.13 Q 3.1 -7.3 3.75 -9.5 L 3.75 -9.5 Q 3.9 -9.5 4.05 -9.53 Q 4.2 -9.55 4.4 -9.55 L 4.4 -9.55 Q 5.3 -9.55 5.95 -9.25 L 5.95 -9.25 L 6.75 -2.6 Q 7.7 -2.4 9.08 -2.13 Q 10.45 -1.85 12.15 -1.85 L 12.15 -1.85 Q 13.95 -1.85 15.85 -2.3 Q 17.75 -2.75 19.05 -3.93 Q 20.35 -5.1 20.35 -7.3 L 20.35 -7.3 Q 20.35 -8.6 20.08 -9.65 Q 19.8 -10.7 18.85 -11.7 Q 17.9 -12.7 15.95 -13.83 Q 14 -14.95 10.65 -16.4 L 10.65 -16.4 Q 7.05 -18 5.33 -19.6 Q 3.6 -21.2 3.1 -22.98 Q 2.6 -24.75 2.6 -26.8 L 2.6 -26.8 Q 2.6 -29.95 4.42 -31.93 Q 6.25 -33.9 9.2 -34.85 Q 12.15 -35.8 15.45 -35.8 L 15.45 -35.8 Q 17.65 -35.8 19.85 -35.43 Q 22.05 -35.05 23.95 -34.3 L 23.95 -34.3 Q 24.05 -32 23.58 -29.93 Q 23.1 -27.85 22.4 -25.85 L 22.4 -25.85 Q 22.25 -25.8 22.08 -25.8 Q 21.9 -25.8 21.75 -25.8 L 21.75 -25.8 Q 20.9 -25.8 20.2 -26.1 L 20.2 -26.1 L 19.65 -32.75 Q 18.6 -33.05 17.45 -33.23 Q 16.3 -33.4 15.15 -33.4 L 15.15 -33.4 Q 13.2 -33.4 11.4 -32.83 Q 9.6 -32.25 8.47 -31 Q 7.35 -29.75 7.35 -27.65 L 7.35 -27.65 Q 7.35 -26.25 7.85 -25.13 Q 8.35 -24 9.88 -22.93 Q 11.4 -21.85 14.5 -20.45 L 14.5 -20.45 Q 18.4 -18.75 20.85 -17.25 Q 23.3 -15.75 24.45 -13.8 Q 25.6 -11.85 25.6 -8.7 L 25.6 -8.7 Q 25.6 -6.25 24.5 -4.42 Q 23.4 -2.6 21.55 -1.43 Q 19.7 -0.25 17.45 0.35 Q 15.2 0.95 12.9 0.95 Z M 38.35 -32.5 L 38.35 -2.5 L 42.2 -1.5 Q 42.35 -0.55 41.95 0.25 L 41.95 0.25 Q 40.6 0.15 38.92 0.08 Q 37.25 0 35.85 0 L 35.85 0 Q 34.45 0 32.42 0.08 Q 30.4 0.15 29 0.25 L 29 0.25 Q 28.85 -0.7 29.1 -1.5 L 29.1 -1.5 Q 30.15 -1.65 31.15 -1.85 Q 32.15 -2.05 33.1 -2.5 L 33.1 -2.5 L 33.1 -32.5 L 29.25 -33.5 Q 29.1 -34.45 29.5 -35.25 L 29.5 -35.25 Q 30.85 -35.2 32.52 -35.1 Q 34.2 -35 35.6 -35 L 35.6 -35 Q 37.05 -35 39.05 -35.1 Q 41.05 -35.2 42.45 -35.25 L 42.45 -35.25 Q 42.6 -34.3 42.35 -33.5 L 42.35 -33.5 Q 41.35 -33.3 40.35 -33.1 Q 39.35 -32.9 38.35 -32.5 L 38.35 -32.5 Z M 59.05 0.35 L 52.8 0 Q 51.4 0 49.37 0.08 Q 47.34 0.15 45.95 0.25 L 45.95 0.25 Q 45.8 -0.7 46.05 -1.5 L 46.05 -1.5 Q 47.09 -1.65 48.09 -1.9 Q 49.09 -2.15 50.05 -2.5 L 50.05 -2.5 L 50.05 -32.5 L 46.2 -33.5 Q 46.05 -34.45 46.45 -35.25 L 46.45 -35.25 Q 47.8 -35.2 49.47 -35.1 Q 51.15 -35 52.55 -35 L 52.55 -35 L 59.05 -35.2 Q 66.15 -35.2 70.5 -32.98 Q 74.84 -30.75 76.82 -26.85 Q 78.8 -22.95 78.8 -18 L 78.8 -18 Q 78.8 -12.85 77.15 -9.33 Q 75.5 -5.8 72.69 -3.68 Q 69.9 -1.55 66.37 -0.6 Q 62.84 0.35 59.05 0.35 L 59.05 0.35 Z M 55.3 -32.75 L 55.3 -2.25 Q 57.05 -2.1 58.59 -2.1 L 58.59 -2.1 Q 64 -2.1 67.22 -3.83 Q 70.44 -5.55 71.84 -9.08 Q 73.25 -12.6 73.25 -18 L 73.25 -18 Q 73.25 -22.8 71.77 -26.13 Q 70.3 -29.45 66.92 -31.15 Q 63.55 -32.85 57.84 -32.85 L 57.84 -32.85 Q 57.25 -32.85 56.62 -32.83 Q 56 -32.8 55.3 -32.75 L 55.3 -32.75 Z" stroke-linecap="round" />
</g>
		<g transform="matrix(5.05 0 0 5.05 0 0)"  >
<path style="stroke: rgb(255,255,255); stroke-opacity: 0; stroke-width: 1; stroke-dasharray: none; stroke-linecap: butt; stroke-dashoffset: 0; stroke-linejoin: miter; stroke-miterlimit: 4; fill: rgb(213,178,99); fill-rule: nonzero; opacity: 1;" vector-effect="non-scaling-stroke"  transform=" translate(-197.76, -123.6)" d="M 103.997 45.209 C 127.21796545760843 17.43477356352166 161.55750159273236 1.384648069166147 197.76 1.384648069166147 C 233.96249840726767 1.384648069166147 268.3020345423916 17.43477356352167 291.523 45.209 L 283.905 45.209 C 262.14618406001404 20.407320171536156 230.75347501285393 6.187058239365754 197.76 6.187058239365754 C 164.76652498714606 6.187058239365754 133.37381593998592 20.407320171536192 111.61500000000001 45.209000000000046 L 103.997 45.209 M 103.997 201.991 C 127.21796545760844 229.76522643647837 161.55750159273234 245.81535193083386 197.76 245.81535193083386 C 233.96249840726767 245.81535193083386 268.3020345423916 229.76522643647834 291.523 201.99099999999999 L 283.905 201.991 C 262.14618406001404 226.79267982846386 230.75347501285393 241.01294176063425 197.76 241.01294176063425 C 164.76652498714606 241.01294176063425 133.37381593998592 226.79267982846386 111.61500000000001 201.99099999999999 L 103.997 201.991" stroke-linecap="round" />
</g>
		<g transform="matrix(5.05 0 0 5.05 0 0)"  >
<rect style="stroke: none; stroke-width: 1; stroke-dasharray: none; stroke-linecap: butt; stroke-dashoffset: 0; stroke-linejoin: miter; stroke-miterlimit: 4; fill: none; fill-rule: nonzero; opacity: 1;" vector-effect="non-scaling-stroke"  x="-197.76" y="-123.6" rx="0" ry="0" width="395.52" height="247.2" />
</g>
</g>
</g>
</svg>